<?xml version="1.0" encoding="utf-8"?>
<!-- Generator: Adobe Illustrator 16.0.0, SVG Export Plug-In . SVG Version: 6.00 Build 0)  -->
<!DOCTYPE svg PUBLIC "-//W3C//DTD SVG 1.1//EN" "http://www.w3.org/Graphics/SVG/1.1/DTD/svg11.dtd">
<svg version="1.1" id="Layer_1" xmlns="http://www.w3.org/2000/svg" xmlns:xlink="http://www.w3.org/1999/xlink" x="0px" y="0px"
	 width="1282.214px" height="747px" viewBox="0 0 1282.214 747" enable-background="new 0 0 1282.214 747" xml:space="preserve">
<linearGradient id="SVGID_1_" gradientUnits="userSpaceOnUse" x1="646.3667" y1="664.9893" x2="642.3668" y2="340.9893" gradientTransform="matrix(-1 0 0 1 1283.3086 0)">
	<stop  offset="0" style="stop-color:#FFFFFF"/>
	<stop  offset="1" style="stop-color:#A7DCE9"/>
</linearGradient>
<rect x="1.057" fill="url(#SVGID_1_)" width="1281.194" height="566.691"/>
<path fill="#3A8A41" d="M1000.464,185.007c0,0-32.563-38.168-62.191-12.011C938.273,172.996,967.367,156.714,1000.464,185.007z"/>
<path fill="#658B3C" d="M1023.47,183.378c0,0,5.543-47.189,42.639-42.195C1066.109,141.183,1034.63,143.681,1023.47,183.378z"/>
<path fill="#3A8A41" d="M1050.511,186.533c0,0,42.622-34.761,68.656-0.287C1119.167,186.246,1091.633,162.604,1050.511,186.533z"/>
<path opacity="0.69" fill="#FFFFFF" d="M728.244,207.078c0-9.183,6.408-16.853,14.986-18.871c-1.311-2.019-2.068-4.39-2.068-6.963
	c0-7.115,5.803-12.917,12.916-12.917c3.23,0,6.156,1.161,8.377,3.128c3.885-9.435,13.121-16.045,23.916-16.045
	c14.281,0,25.834,11.555,25.834,25.834c0,0.706-0.049,1.463-0.1,2.17c7.67,3.583,13.018,11.403,13.018,20.435
	c0,12.462-10.141,22.605-22.604,22.605h-54.898C736.923,226.454,728.244,217.775,728.244,207.078z"/>
<path opacity="0.69" fill="#FFFFFF" d="M1139.283,360.703c0-9.183,6.408-16.853,14.984-18.871c-1.309-2.019-2.068-4.39-2.068-6.963
	c0-7.115,5.803-12.917,12.918-12.917c3.23,0,6.156,1.161,8.377,3.128c3.885-9.435,13.119-16.045,23.916-16.045
	c14.279,0,25.834,11.555,25.834,25.834c0,0.706-0.051,1.463-0.1,2.17c7.67,3.583,13.018,11.403,13.018,20.435
	c0,12.462-10.141,22.605-22.605,22.605h-54.898C1147.962,380.078,1139.283,371.399,1139.283,360.703z"/>
<path opacity="0.42" fill="#FFFFFF" d="M202.184,102.242c0-9.183,6.408-16.853,14.985-18.871c-1.31-2.019-2.068-4.39-2.068-6.963
	c0-7.115,5.803-12.917,12.917-12.917c3.23,0,6.156,1.161,8.377,3.128c3.885-9.435,13.12-16.045,23.916-16.045
	c14.28,0,25.834,11.555,25.834,25.834c0,0.706-0.05,1.463-0.1,2.17c7.67,3.583,13.018,11.403,13.018,20.435
	c0,12.462-10.141,22.605-22.604,22.605H221.56C210.864,121.618,202.184,112.939,202.184,102.242z"/>
<path opacity="0.37" fill="#FFFFFF" d="M57.925,60.757c0-5.792,4.042-10.63,9.452-11.903c-0.826-1.273-1.305-2.769-1.305-4.393
	c0-4.487,3.66-8.147,8.147-8.147c2.038,0,3.883,0.732,5.284,1.973c2.45-5.951,8.275-10.121,15.085-10.121
	c9.007,0,16.295,7.289,16.295,16.295c0,0.446-0.032,0.923-0.063,1.369c4.838,2.259,8.211,7.192,8.211,12.889
	c0,7.861-6.396,14.258-14.258,14.258H70.147C63.4,72.979,57.925,67.504,57.925,60.757z"/>
<path opacity="0.38" fill="#FFFFFF" d="M34.021,379.9c0-5.793,4.042-10.631,9.452-11.903c-0.826-1.273-1.305-2.769-1.305-4.393
	c0-4.487,3.66-8.147,8.147-8.147c2.038,0,3.883,0.732,5.284,1.973c2.45-5.951,8.275-10.121,15.085-10.121
	c9.007,0,16.295,7.289,16.295,16.295c0,0.446-0.032,0.923-0.063,1.369c4.838,2.259,8.211,7.192,8.211,12.89
	c0,7.86-6.396,14.258-14.258,14.258H46.243C39.496,392.121,34.021,386.646,34.021,379.9z"/>
<path opacity="0.38" fill="#FFFFFF" d="M687.988,379.9c0-5.793,4.043-10.631,9.453-11.903c-0.826-1.273-1.305-2.769-1.305-4.393
	c0-4.487,3.66-8.147,8.146-8.147c2.039,0,3.883,0.732,5.285,1.973c2.449-5.951,8.275-10.121,15.084-10.121
	c9.008,0,16.295,7.289,16.295,16.295c0,0.446-0.031,0.923-0.063,1.369c4.838,2.259,8.211,7.192,8.211,12.89
	c0,7.86-6.396,14.258-14.258,14.258H700.21C693.462,392.121,687.988,386.646,687.988,379.9z"/>
<path opacity="0.56" fill="#FFFFFF" d="M687.988,105.569c0-5.793,4.043-10.631,9.453-11.903c-0.826-1.273-1.305-2.769-1.305-4.393
	c0-4.487,3.66-8.147,8.146-8.147c2.039,0,3.883,0.732,5.285,1.973c2.449-5.951,8.275-10.121,15.084-10.121
	c9.008,0,16.295,7.289,16.295,16.295c0,0.446-0.031,0.923-0.063,1.369c4.838,2.259,8.211,7.192,8.211,12.89
	c0,7.86-6.396,14.258-14.258,14.258H700.21C693.462,117.79,687.988,112.315,687.988,105.569z"/>
<path opacity="0.69" fill="#FFFFFF" d="M1039.486,142.749c0-14.051,9.806-25.787,22.93-28.875
	c-2.004-3.089-3.165-6.718-3.165-10.655c0-10.887,8.879-19.765,19.765-19.765c4.943,0,9.42,1.776,12.817,4.787
	c5.944-14.437,20.075-24.551,36.595-24.551c21.85,0,39.528,17.681,39.528,39.53c0,1.08-0.076,2.238-0.152,3.32
	c11.735,5.481,19.919,17.448,19.919,31.268c0,19.069-15.517,34.588-34.588,34.588h-84.001
	C1052.767,172.396,1039.486,159.116,1039.486,142.749z"/>
<path opacity="0.45" fill="#FFFFFF" d="M816.654,110.802c0-14.051,9.805-25.787,22.93-28.875c-2.004-3.089-3.166-6.718-3.166-10.655
	c0-10.887,8.879-19.765,19.766-19.765c4.942,0,9.419,1.776,12.816,4.787c5.945-14.437,20.076-24.551,36.595-24.551
	c21.851,0,39.528,17.681,39.528,39.53c0,1.08-0.076,2.238-0.152,3.32c11.736,5.481,19.919,17.448,19.919,31.268
	c0,19.069-15.517,34.588-34.587,34.588H846.3C829.935,140.448,816.654,127.169,816.654,110.802z"/>
<path opacity="0.52" fill="#FFFFFF" d="M32.147,188.639c0-10.149,7.083-18.625,16.562-20.856c-1.447-2.231-2.285-4.853-2.285-7.696
	c0-7.864,6.413-14.276,14.275-14.276c3.57,0,6.804,1.283,9.259,3.457c4.292-10.427,14.499-17.733,26.431-17.733
	c15.783,0,28.552,12.771,28.552,28.552c0,0.78-0.055,1.617-0.11,2.398c8.477,3.959,14.387,12.603,14.387,22.584
	c0,13.773-11.207,24.983-24.982,24.983H53.562C41.74,210.052,32.147,200.461,32.147,188.639z"/>
<g>
	<path fill="#65BBDA" d="M338.513,497.832c0,0-91.285,16.016-150.007,0c0,0-90.217-10.143-129.187-2.135
		c0,0-55.136-0.533-58.263-12.813v259.176h1281.194V510.645c0,0-36.561-15.772-67.602-8.077c-0.755,0.187-1.506,0.389-2.254,0.604
		c-31.496,9.074-234.353-2.786-288.803-10.735c0,0-124.917-3.737-222.074,9.104c-44.613,4.451-91.632,5.384-136-1.396
		c-8.785-1.342-17.451-3.291-26.028-5.6c-9.502-2.555-19.733-7.603-29.432-8.832c-44.781-5.671-93.289-4.187-137.62,3.911
		C360.986,491.714,349.634,494.371,338.513,497.832z"/>
	<path fill="#1B75BB" d="M338.513,504.771c0,0-91.285,16.017-150.007,0c0,0-90.217-10.143-129.187-2.134
		c0,0-55.136-0.535-58.263-12.813V749h1281.194V517.585c0,0-36.561-15.773-67.602-8.078c-0.755,0.188-1.506,0.389-2.254,0.604
		c-31.496,9.074-234.353-2.786-288.803-10.736c0,0-124.917-3.736-222.074,9.104c-44.613,4.452-91.632,5.385-136-1.396
		c-8.785-1.341-17.451-3.291-26.028-5.6c-9.502-2.554-19.733-7.603-29.432-8.831c-44.781-5.671-93.289-4.187-137.62,3.911
		C360.986,498.653,349.634,501.311,338.513,504.771z"/>
	<path fill="#48A4CD" d="M1226.809,647.306c0,0-41.104-49.646-202.322-6.406c-42.869,11.498-87.396,11.469-129.98-0.703
		c-28.774-8.224-56.185-15.122-86.058-17.247c-29.148-2.074-58.674-0.903-87.657,2.689c-20.297,2.518-40.489,5.957-60.378,10.761
		c0,0-51.781,12.507-83.277-8.846c0,0,21.888,49.646,175.097,12.278c30.601-7.464,62.458-8.132,92.38,3.042
		c27.936,10.434,53.081,21.672,82.879,25.739c30.935,4.223,62.512,3.441,93.234-2.163c21.713-3.962,43.305-10.899,63.551-19.679
		C1084.277,646.771,1152.074,625.418,1226.809,647.306z"/>
	<path fill="#63BFDC" d="M1194.958,531.33c6.553,2.536,16.205,8.969,13.133,17.302c-17.844,9.411-44.766,17.053-65.09,12.727
		c-9.557-2.033-19.418-4.046-29.242-3.376c-8.446,0.576-14.702,4.502-22.422,7.148c-16.043,5.504-34.246,6.743-51.068,7.027
		c-10.43,0.177-21.004-0.244-31.263-2.259c-37.831-5.73-79.198-13.008-117.454-9.563c-14.894,1.344-29.331,3.633-44.4,3.781
		c-11.913,0.116-24.084,0.388-35.883-1.427c-10.216-1.569-28.861-4.147-32.088-16.263c-3.462-13.006,13.119-22.642,23.989-22.437
		C803.183,523.991,1194.958,531.33,1194.958,531.33z"/>
	<path fill="#E1A956" d="M1199.05,537.336c0.234-0.51-6.986-9.78-7.425-10.425c-6.519-9.578-13.882-18.429-22.339-26.368
		c-24.169-22.687-55.91-44.954-88.199-53.514c-37.042-9.818-75.188-3.88-111.836,4.214c-35.658,7.876-70.668,18.622-104.054,33.513
		c-19.822,8.842-39.055,19.69-56.38,32.829c-18.87,14.309,14.874,20.186,23.58,20.919c16.949,1.433,34.105,1.403,51.096,1.076
		c15.666-0.301,31.426-0.901,47.039-2.244c0.016-0.002,49.647-4.269,56.053,8.008c0,0,15.48,11.744,24.557,8.541
		c0,0,11.21-5.301,20.819,0.553c13.931,2.952,31.347,4.675,44.831-0.586c2.579-1.008,5.033-2.307,7.446-3.655
		c2.351-1.314,5.333-4.019,7.917-4.65c4.868-1.195,11.71-3.276,16.793-2.49c0.904,0.142,2.09,0.755,3.201,0.924
		c6.223,0.943,12.406,2.042,18.646,2.937c12.225,1.752,24.602,3.172,36.969,2.518C1178.019,548.889,1194.01,548.272,1199.05,537.336
		z"/>
	<path fill="#7E3119" d="M1173.908,505.092c0,0-7.688,10.356-32.512-3.256c0,0-22.688-10.143-39.236-10.143
		c0,0-54.718,2.698-69.398-7.459c0,0-47.709-35.781,18.318-35.781c0,0,24.072-3.753,51.59,6.264
		C1102.669,454.717,1141.864,471.445,1173.908,505.092z"/>
	<path fill="#C8884A" d="M1080.005,473.275c0,0,17.617-172.961-53.383-251.968h-6.406c0,0,58.722,125.984,3.203,243.961
		C1023.419,465.269,1039.968,498.365,1080.005,473.275z"/>
	<path fill="#966532" d="M1051.08,482.308c0,0,64.159-117.399-27.126-261h2.669c0,0,64.594,62.458,55.321,251.968
		C1081.944,473.275,1066.66,484.234,1051.08,482.308z"/>
	<path fill="#4CAE4B" d="M1021.285,221.308c0,0-20.286-108.101-116.108-33.365l26.157,0.802l8.541-8.008l0.534,7.474l18.149,4.537
		l9.877-11.21l1.334,16.016c0,0,19.485,0.8,25.625,6.405l1.067-10.677l7.474,15.748
		C1003.935,209.029,1016.747,214.101,1021.285,221.308z"/>
	<path fill="#97CA4E" d="M1025.917,222.646c0,0-40.937-95.785,73.847-87.392l-20.174,14.4l-10.938-1.808l3.514,6.164l-11.901,13.127
		l-13.677-3.627l7.381,13.313c0,0-14.92,10.89-16.802,18.532l-6.461-7.845l2.407,16.336
		C1033.113,203.848,1025.695,214.583,1025.917,222.646z"/>
	<path fill="#97CA4E" d="M1021.242,219.873c0,0,88.146-55.506,97.926,59.168l-17.396-17.653l0.064-11.089l-5.533,4.439
		l-14.838-9.685l1.43-14.076l-11.986,9.382c0,0-13.103-13.019-20.945-13.675l6.73-7.613l-15.754,4.947
		C1040.939,224.019,1029.169,218.385,1021.242,219.873z"/>
	<path fill="#658B3C" d="M1059.634,211.272c0,0,47.475-1.951,48.383,35.467C1108.017,246.739,1100.595,216.047,1059.634,211.272z"/>
	<path fill="#3CA849" d="M1020.766,221.227c0,0,44.206-113.206,130.476-12.41l-27.989-4.498l-7.408-10.442l-2.13,8.001
		l-20.254,1.205l-8.157-14.196l-4.774,17.112c0,0-20.893-3.125-28.593,1.698l1.099-11.811l-11.246,15.569
		C1041.789,211.455,1027.103,214.332,1020.766,221.227z"/>
	<path fill="#4CAE4B" d="M1024.673,216.616c0,0-97.232,37.376-11.232,113.86l-3.725-24.502l-8.92-6.586l6.867-1.776l1.125-17.683
		l-12.129-7.28l14.689-3.984c0,0-2.583-18.291,1.587-24.966l-10.128,0.834l13.393-9.657
		C1016.201,234.876,1018.734,222.074,1024.673,216.616z"/>
	<path fill="#3A8A41" d="M994.8,242.221c0,0-29.985,36.86-0.556,59.987C994.245,302.208,974.101,277.887,994.8,242.221z"/>
	<path fill="#97CA4E" d="M1024.419,215.915c0,0-112.351-46.339-99.179,85.678l16.103-23.328l-2.424-12.574l7.254,3.993
		l14.876-13.797l-4.616-15.709l15.662,8.381c0,0,12.188-17.255,20.998-19.481l-9.295-7.373l19.027,2.64
		C1002.826,224.344,1015.057,215.723,1024.419,215.915z"/>
	<path fill="#658B3C" d="M978.789,213.414c0,0-54.584,6.759-47.68,49.401C931.109,262.815,933.068,226.577,978.789,213.414z"/>
	<g>
		<path fill="#7E3D1B" d="M1068.669,515.431c1.828-0.065,2.652,4.354,2.295,5.511c-0.662,2.137-3.109,3.46-5.025,4.271
			c-3.687,1.563-7.861,1.15-11.773,1.447c-2.322,0.178-4.662,0.408-6.953,0.837c-2.202,0.408-4.375,1.271-6.639,1.23
			c-3.803-0.069-25.002-1.611-21.69-9.429c0,0,1.403-3.315,5.958-2.843c0.103,0.012,0.208,0.026,0.314,0.04
			C1029.957,517.163,1068.611,515.433,1068.669,515.431z"/>
		<path fill="#94989F" d="M1021.195,515.695c-0.051,4.151,3.066,5.59,7.386,7.596c9.854,4.578,27.019,4.449,36.085-2.258
			c6.432-4.756,5.984-12.701-0.8-16.815c-9.785-5.931-19.349-4.763-25.384-4.033c-5.529,0.667-8.018,3.626-11.324,8.304
			C1025.881,510.292,1021.216,513.953,1021.195,515.695z"/>
		<path fill="#6C6D6D" d="M1063.866,504.218c1.517,0.953,2.845,2.152,3.784,3.657c2.852,4.579,1.191,10.07-2.984,13.158
			c-9.066,6.707-26.23,6.836-36.085,2.258c3.022,1.403,7.289,1.313,10.532,1.612c6.433,0.597,12.551,0.354,18.699-1.901
			c1.631-0.599,2.969-1.501,4.029-2.892c1.274-1.671,2.688-3.769,2.902-5.914c0.247-2.477-1.33-4.67-2.646-6.617
			c-0.782-1.157-1.612-2.279-2.526-3.338c-0.531-0.616-1.851-2.569-2.648-2.758C1059.25,502.032,1061.744,502.886,1063.866,504.218z
			"/>
	</g>
	<g>
		<path fill="#7E3D1B" d="M1021.783,511.658c1.096-0.038,1.59,2.61,1.375,3.305c-0.396,1.28-1.863,2.073-3.012,2.559
			c-2.21,0.937-4.712,0.689-7.057,0.868c-1.393,0.105-2.795,0.246-4.168,0.502c-1.32,0.244-2.623,0.762-3.979,0.736
			c-2.28-0.039-14.987-0.965-13.002-5.651c0,0,0.841-1.987,3.571-1.704c0.063,0.007,0.125,0.017,0.188,0.025
			C998.578,512.698,1021.748,511.659,1021.783,511.658z"/>
		<path fill="#94989F" d="M993.326,511.818c-0.029,2.487,1.838,3.352,4.428,4.552c5.906,2.745,16.195,2.667,21.63-1.353
			c3.854-2.851,3.587-7.613-0.479-10.081c-5.865-3.553-11.599-2.854-15.216-2.416c-3.315,0.399-4.806,2.175-6.788,4.978
			C996.134,508.577,993.338,510.773,993.326,511.818z"/>
		<path fill="#6C6D6D" d="M1018.904,504.937c0.91,0.572,1.705,1.291,2.268,2.193c1.709,2.745,0.715,6.036-1.788,7.888
			c-5.435,4.02-15.724,4.098-21.63,1.353c1.811,0.843,4.369,0.786,6.313,0.968c3.855,0.356,7.524,0.211,11.209-1.141
			c0.977-0.359,1.779-0.901,2.416-1.735c0.764-1,1.609-2.258,1.738-3.542c0.148-1.485-0.798-2.801-1.586-3.967
			c-0.468-0.694-0.967-1.368-1.514-2.002c-0.318-0.368-1.109-1.54-1.588-1.652C1016.136,503.628,1017.632,504.138,1018.904,504.937z
			"/>
	</g>
	<g>
		<path fill="#7E3D1B" d="M1077.236,532.476c0.62-0.021,0.899,1.476,0.777,1.868c-0.224,0.723-1.053,1.171-1.703,1.447
			c-1.25,0.529-2.664,0.39-3.989,0.489c-0.788,0.061-1.581,0.141-2.356,0.284c-0.746,0.138-1.484,0.433-2.252,0.417
			c-1.289-0.023-8.473-0.546-7.35-3.196c0,0,0.475-1.122,2.018-0.964c0.036,0.004,0.072,0.011,0.107,0.015
			C1064.115,533.063,1077.216,532.476,1077.236,532.476z"/>
		<path fill="#94989F" d="M1061.146,532.564c-0.018,1.407,1.039,1.896,2.503,2.576c3.34,1.552,9.157,1.508,12.229-0.766
			c2.181-1.611,2.028-4.306-0.271-5.701c-3.316-2.008-6.557-1.614-8.603-1.366c-1.874,0.225-2.718,1.23-3.839,2.815
			C1062.734,530.734,1061.153,531.975,1061.146,532.564z"/>
		<path fill="#6C6D6D" d="M1075.607,528.674c0.516,0.322,0.966,0.729,1.283,1.24c0.967,1.552,0.404,3.412-1.012,4.461
			c-3.072,2.273-8.89,2.317-12.229,0.766c1.024,0.475,2.472,0.443,3.57,0.546c2.179,0.202,4.254,0.119,6.337-0.645
			c0.553-0.204,1.006-0.511,1.365-0.982c0.432-0.565,0.912-1.275,0.984-2.001c0.082-0.841-0.451-1.585-0.898-2.245
			c-0.264-0.392-0.545-0.773-0.855-1.131c-0.18-0.209-0.627-0.873-0.896-0.935C1074.042,527.934,1074.888,528.223,1075.607,528.674z
			"/>
	</g>
	<g>
		<path fill="#7E3D1B" d="M1098.936,520.062c0.62-0.021,0.899,1.477,0.778,1.869c-0.225,0.723-1.054,1.171-1.703,1.447
			c-1.25,0.529-2.665,0.39-3.99,0.489c-0.787,0.061-1.581,0.14-2.356,0.284c-0.747,0.137-1.483,0.431-2.251,0.417
			c-1.289-0.023-8.475-0.548-7.351-3.198c0,0,0.476-1.12,2.019-0.963c0.035,0.005,0.07,0.012,0.107,0.016
			C1085.815,520.649,1098.917,520.062,1098.936,520.062z"/>
		<path fill="#94989F" d="M1082.845,520.151c-0.016,1.407,1.041,1.896,2.504,2.574c3.34,1.552,9.158,1.508,12.23-0.764
			c2.18-1.613,2.027-4.308-0.271-5.701c-3.316-2.009-6.559-1.614-8.604-1.366c-1.874,0.225-2.717,1.23-3.838,2.814
			C1084.433,518.319,1082.853,519.562,1082.845,520.151z"/>
		<path fill="#6C6D6D" d="M1097.308,516.261c0.514,0.322,0.965,0.729,1.282,1.24c0.968,1.551,0.404,3.411-1.011,4.461
			c-3.072,2.271-8.891,2.315-12.23,0.764c1.024,0.477,2.472,0.445,3.57,0.548c2.18,0.201,4.254,0.118,6.337-0.645
			c0.553-0.205,1.007-0.511,1.366-0.982c0.432-0.565,0.911-1.276,0.982-2.002c0.084-0.841-0.45-1.585-0.896-2.244
			c-0.265-0.392-0.546-0.773-0.855-1.132c-0.18-0.208-0.629-0.872-0.898-0.934C1095.744,515.52,1096.589,515.81,1097.308,516.261z"
			/>
	</g>
	<g>
		<path fill="#7E3D1B" d="M1033.851,536.408c0.404-0.015,0.587,0.962,0.507,1.216c-0.146,0.472-0.687,0.763-1.108,0.942
			c-0.814,0.347-1.736,0.255-2.6,0.319c-0.513,0.04-1.029,0.092-1.535,0.186c-0.486,0.089-0.966,0.281-1.467,0.271
			c-0.838-0.016-5.519-0.355-4.787-2.081c0,0,0.309-0.732,1.314-0.629c0.023,0.003,0.047,0.007,0.07,0.009
			C1025.304,536.79,1033.838,536.408,1033.851,536.408z"/>
		<path fill="#94989F" d="M1023.371,536.466c-0.011,0.916,0.678,1.234,1.631,1.678c2.176,1.011,5.965,0.982,7.967-0.499
			c1.42-1.049,1.32-2.805-0.176-3.714c-2.161-1.308-4.273-1.051-5.605-0.889c-1.221,0.146-1.77,0.801-2.5,1.834
			C1024.405,535.273,1023.376,536.08,1023.371,536.466z"/>
		<path fill="#6C6D6D" d="M1032.792,533.931c0.334,0.211,0.627,0.477,0.835,0.81c0.63,1.01,0.263,2.221-0.659,2.904
			c-2.002,1.481-5.791,1.51-7.967,0.499c0.668,0.31,1.609,0.289,2.326,0.356c1.419,0.131,2.77,0.077,4.127-0.423
			c0.36-0.13,0.655-0.33,0.891-0.638c0.281-0.369,0.593-0.831,0.639-1.305c0.055-0.547-0.292-1.032-0.583-1.462
			c-0.173-0.254-0.355-0.502-0.558-0.735c-0.117-0.136-0.408-0.569-0.585-0.609C1031.772,533.449,1032.323,533.639,1032.792,533.931
			z"/>
	</g>
	<g>
		<path fill="#7E3D1B" d="M1058.675,542.843c0.404-0.015,0.588,0.962,0.507,1.216c-0.146,0.472-0.687,0.765-1.108,0.942
			c-0.814,0.348-1.736,0.255-2.6,0.319c-0.513,0.04-1.029,0.093-1.534,0.186c-0.487,0.089-0.967,0.281-1.467,0.271
			c-0.84-0.015-5.519-0.355-4.788-2.081c0,0,0.31-0.732,1.314-0.628c0.023,0.003,0.047,0.007,0.07,0.008
			C1050.129,543.225,1058.664,542.843,1058.675,542.843z"/>
		<path fill="#94989F" d="M1048.195,542.902c-0.011,0.915,0.678,1.233,1.631,1.676c2.176,1.012,5.965,0.982,7.967-0.499
			c1.42-1.048,1.32-2.804-0.177-3.713c-2.159-1.308-4.272-1.051-5.604-0.89c-1.221,0.147-1.77,0.802-2.5,1.834
			C1049.23,541.709,1048.2,542.516,1048.195,542.902z"/>
		<path fill="#6C6D6D" d="M1057.616,540.366c0.335,0.211,0.628,0.476,0.835,0.809c0.631,1.01,0.264,2.222-0.658,2.904
			c-2.002,1.481-5.791,1.511-7.967,0.499c0.667,0.311,1.609,0.29,2.326,0.357c1.418,0.13,2.77,0.076,4.128-0.422
			c0.359-0.131,0.654-0.331,0.889-0.639c0.282-0.369,0.593-0.831,0.641-1.305c0.054-0.546-0.293-1.033-0.585-1.462
			c-0.171-0.254-0.354-0.503-0.557-0.735c-0.117-0.136-0.409-0.569-0.586-0.609C1056.597,539.884,1057.146,540.073,1057.616,540.366
			z"/>
	</g>
	<g>
		<path fill="#005198" d="M874.189,457.899c-14.159,7.824-27.582,16.951-39.893,27.439c-4.395,3.741-11.068,8.819-10.468,15.352
			c0.609,6.636,5.495,7.604,11.04,5.932c7.654-2.307,6.477-11.48,9.323-17.298c3.259-6.663,8.21-11.964,13.944-16.652
			c5.338-4.365,11.664-7.904,17.85-10.908L874.189,457.899z"/>
		<path fill="#005198" d="M867.241,458.314c14.409,7.342,28.135,16.018,40.788,26.086c4.517,3.593,11.358,8.443,10.977,14.991
			c-0.388,6.653-5.238,7.785-10.836,6.301c-7.728-2.048-6.857-11.261-9.898-16.978c-3.482-6.552-8.602-11.681-14.494-16.178
			c-5.48-4.181-11.922-7.506-18.205-10.303L867.241,458.314z"/>
		<g>
			<g>
				<path fill="#0076B6" d="M845.821,478.886c0,14.5,11.735,26.26,26.212,26.26s26.212-11.76,26.212-26.26
					c0-14.504-11.735-26.264-26.212-26.264S845.821,464.382,845.821,478.886z"/>
			</g>
			<defs>
				<filter id="Adobe_OpacityMaskFilter" filterUnits="userSpaceOnUse" x="845.821" y="452.622" width="52.424" height="52.523">
					
						<feColorMatrix  type="matrix" values="-1 0 0 0 1  0 -1 0 0 1  0 0 -1 0 1  0 0 0 1 0" color-interpolation-filters="sRGB" result="source"/>
				</filter>
			</defs>
			<mask maskUnits="userSpaceOnUse" x="845.821" y="452.622" width="52.424" height="52.523" id="SVGID_2_">
				<g filter="url(#Adobe_OpacityMaskFilter)">
					
						<image overflow="visible" width="236" height="236" xlink:href="2748AE1D.jpg"  transform="matrix(0.24 0 0 0.24 843.8208 450.6221)">
					</image>
				</g>
			</mask>
			<g opacity="0.44" mask="url(#SVGID_2_)">
				<path fill="#939598" d="M845.821,478.886c0,14.5,11.735,26.26,26.212,26.26s26.212-11.76,26.212-26.26
					c0-14.504-11.735-26.264-26.212-26.264S845.821,464.382,845.821,478.886z"/>
			</g>
		</g>
		<g>
			<g>
				<path fill="#005198" d="M850.105,334.999c0,0-47.329,10.796-54.761,52.013c0,0-11.79,46.687,35.7,71.56
					c0,0,41.998,19.225,83.674-1.775c0,0,25.523-12.115,31.984-42.482c0,0,14.053-54.599-47.813-77.213c0,0-7.803-3.693-25.34-4.336
					C873.55,332.765,862.596,332.071,850.105,334.999"/>
			</g>
			<defs>
				
					<filter id="Adobe_OpacityMaskFilter_1_" filterUnits="userSpaceOnUse" x="794.046" y="332.693" width="154.027" height="133.919">
					
						<feColorMatrix  type="matrix" values="-1 0 0 0 1  0 -1 0 0 1  0 0 -1 0 1  0 0 0 1 0" color-interpolation-filters="sRGB" result="source"/>
				</filter>
			</defs>
			<mask maskUnits="userSpaceOnUse" x="794.046" y="332.693" width="154.027" height="133.919" id="SVGID_3_">
				<g filter="url(#Adobe_OpacityMaskFilter_1_)">
					
						<image overflow="visible" width="659" height="575" xlink:href="2748AE1F.jpg"  transform="matrix(0.24 0 0 0.24 792.0464 330.6929)">
					</image>
				</g>
			</mask>
			<g opacity="0.44" mask="url(#SVGID_3_)">
				<path fill="#939598" d="M850.105,334.999c0,0-47.329,10.796-54.761,52.013c0,0-11.79,46.687,35.7,71.56
					c0,0,41.998,19.225,83.674-1.775c0,0,25.523-12.115,31.984-42.482c0,0,14.053-54.599-47.813-77.213c0,0-7.803-3.693-25.34-4.336
					C873.55,332.765,862.596,332.071,850.105,334.999"/>
			</g>
		</g>
		<path fill="#005198" d="M956.374,280.834c2.881,8.162,3.227,15.853-0.044,24.003c-3.27,8.154-8.832,13.475-16.555,17.381
			c-0.194,0.104-0.384,0.273-0.467,0.483c-0.242,0.6,2,5.896,2.628,6.148c0.235,0.096,0.487,0.075,0.706-0.019
			c9.21-3.98,16.666-12.059,20.377-21.309c3.708-9.249,3.902-20.242-0.004-29.483c-0.096-0.221-0.262-0.41-0.498-0.505
			c-0.625-0.249-5.908,2.029-6.148,2.63C956.285,280.376,956.306,280.625,956.374,280.834z"/>
		<path fill="#0076B6" d="M946.417,285.091c1.614,5.65,2.145,10.079-0.12,15.722c-3.164,7.892-11.113,11.681-11.23,11.968
			c-0.237,0.601,2.013,5.872,2.641,6.125c0.208,0.084,0.461,0.064,0.68-0.033c6.555-2.801,11.969-8.816,14.599-15.375
			s2.874-14.65,0.073-21.204c-0.093-0.218-0.262-0.405-0.471-0.489c-0.627-0.253-5.898,2-6.139,2.601
			C946.366,284.614,946.375,284.892,946.417,285.091z"/>
		<path fill="#005198" d="M936.263,296.79c-1.552,3.866-5.284,5.613-5.441,6.006c-0.251,0.629,1.99,5.925,2.618,6.178
			c0.235,0.093,0.487,0.072,0.704-0.022c3.893-1.686,7.257-5.61,8.809-9.477c1.551-3.871,1.833-9.031,0.185-12.939
			c-0.093-0.219-0.263-0.409-0.496-0.505c-0.627-0.248-5.909,2.031-6.161,2.657C936.334,289.052,937.804,292.949,936.263,296.79z"/>
		<path fill="#005198" d="M929.195,298.988c1.279,0.516,3.327-2.548,3.726-3.538c0.396-0.994,1.034-4.621-0.248-5.136
			c-0.705-0.283-5.83,1.909-6.102,2.587C926.297,293.579,928.489,298.707,929.195,298.988z"/>
		<path fill="#005198" d="M890.575,342.371l-6.748-4.152c0,0-11.845-74.036,48.846-47.904l-3.478,8.674
			C929.195,298.988,880.386,267.054,890.575,342.371z"/>
		<path fill="#005198" d="M796.453,280.164c-0.238-0.601-5.521-2.879-6.148-2.63c-0.236,0.095-0.402,0.287-0.498,0.505
			c-3.906,9.241-3.713,20.234,0,29.483c3.707,9.25,11.164,17.328,20.373,21.307c0.221,0.096,0.471,0.115,0.705,0.021
			c0.629-0.253,2.871-5.549,2.629-6.148c-0.083-0.21-0.271-0.379-0.465-0.483c-7.725-3.906-13.287-9.227-16.557-17.381
			c-3.268-8.148-2.924-15.841-0.043-24.003C796.518,280.625,796.537,280.376,796.453,280.164z"/>
		<path fill="#0076B6" d="M806.374,284.404c-0.24-0.601-5.512-2.854-6.138-2.601c-0.211,0.084-0.375,0.271-0.471,0.492
			c-2.803,6.551-2.559,14.643,0.071,21.203c2.631,6.557,8.044,12.572,14.601,15.373c0.217,0.096,0.469,0.114,0.678,0.03
			c0.627-0.25,2.88-5.521,2.64-6.122c-0.114-0.287-8.063-4.074-11.229-11.965c-2.265-5.646-1.735-10.074-0.122-15.725
			C806.447,284.892,806.457,284.614,806.374,284.404z"/>
		<path fill="#005198" d="M816.343,288.688c-0.255-0.626-5.535-2.905-6.164-2.654c-0.234,0.093-0.4,0.283-0.492,0.502
			c-1.649,3.908-1.368,9.068,0.184,12.939c1.551,3.866,4.914,7.791,8.806,9.477c0.219,0.095,0.472,0.115,0.705,0.022
			c0.628-0.253,2.871-5.549,2.621-6.178c-0.161-0.393-3.894-2.14-5.444-6.006C815.017,292.949,816.49,289.052,816.343,288.688z"/>
		<path fill="#005198" d="M826.25,292.901c-0.269-0.678-5.396-2.87-6.102-2.587c-1.281,0.515-0.644,4.142-0.245,5.136
			c0.397,0.99,2.446,4.054,3.726,3.538C824.333,298.707,826.523,293.579,826.25,292.901z"/>
		<path fill="#005198" d="M862.249,342.371l6.748-4.152c0,0,11.844-74.036-48.849-47.904l3.48,8.674
			C823.628,298.988,872.437,267.054,862.249,342.371z"/>
		<g>
			<g>
				<path fill="#005198" d="M896.568,469.629c0,0-20.311,9.451-49.07,0c0,0-4.016,9.255,0.396,19.491c0,0,21.144,13.133,48.336,0
					C896.23,489.12,900.505,480.078,896.568,469.629z"/>
			</g>
			<defs>
				<filter id="Adobe_OpacityMaskFilter_2_" filterUnits="userSpaceOnUse" x="845.825" y="469.629" width="52.409" height="25.328">
					
						<feColorMatrix  type="matrix" values="-1 0 0 0 1  0 -1 0 0 1  0 0 -1 0 1  0 0 0 1 0" color-interpolation-filters="sRGB" result="source"/>
				</filter>
			</defs>
			<mask maskUnits="userSpaceOnUse" x="845.825" y="469.629" width="52.409" height="25.328" id="SVGID_4_">
				<g filter="url(#Adobe_OpacityMaskFilter_2_)">
					
						<image overflow="visible" width="236" height="123" xlink:href="2748AE1A.jpg"  transform="matrix(0.24 0 0 0.24 843.8247 467.6289)">
					</image>
				</g>
			</mask>
			<g opacity="0.44" mask="url(#SVGID_4_)">
				<path fill="#939598" d="M896.568,469.629c0,0-20.311,9.451-49.07,0c0,0-4.016,9.255,0.396,19.491c0,0,21.144,13.133,48.336,0
					C896.23,489.12,900.505,480.078,896.568,469.629z"/>
			</g>
		</g>
		<ellipse fill="#D01E47" cx="870.777" cy="413.366" rx="8.766" ry="4.076"/>
		<path fill="#FFFFFF" d="M862.888,398.44c-4.133,15.673-20.88,30.204-40.979,24.465c-15.201-4.341-24.244-29.034-11.994-46.198
			c12.992-18.202,33.259-25.995,40.977-24.468C866.402,355.31,867.804,379.794,862.888,398.44z"/>
		<circle cx="841.793" cy="388.108" r="18.393"/>
		<circle fill="#FFFFFF" cx="842.672" cy="383.009" r="7.866"/>
		<circle fill="#FFFFFF" cx="846.604" cy="397.298" r="3.933"/>
		<circle fill="#FFFFFF" cx="832.703" cy="395.139" r="4.264"/>
		<path fill="#017FB9" stroke="#017FB9" stroke-miterlimit="10" d="M808.251,410.989c0,0,2.74-10.735,9.72-4.488
			c0,0,5.04,4.43,8.142,1.269c0,0,20.116-6.865,15.68,14.371C841.792,422.141,821.406,432.104,808.251,410.989z"/>
		<path fill="#FFFFFF" d="M878.419,398.44c4.135,15.673,20.88,30.202,40.977,24.465c15.203-4.341,24.247-29.034,11.996-46.201
			c-12.991-18.199-33.258-25.992-40.976-24.465C874.906,355.31,873.505,379.794,878.419,398.44z"/>
		<path d="M881.123,388.106c0,10.158,8.234,18.395,18.394,18.395s18.392-8.236,18.392-18.395c0-10.156-8.232-18.392-18.392-18.392
			S881.123,377.95,881.123,388.106z"/>
		<circle fill="#FFFFFF" cx="898.636" cy="383.009" r="7.865"/>
		<circle fill="#FFFFFF" cx="894.704" cy="397.298" r="3.933"/>
		<path fill="#FFFFFF" d="M904.339,395.137c0,2.355,1.908,4.267,4.265,4.267c2.354,0,4.265-1.911,4.265-4.267
			c0-2.353-1.91-4.262-4.265-4.262C906.248,390.875,904.339,392.784,904.339,395.137z"/>
		<path fill="#017FB9" stroke="#017FB9" stroke-miterlimit="10" d="M933.056,410.989c0,0-2.74-10.735-9.72-4.488
			c0,0-5.04,4.43-8.144,1.269c0,0-20.113-6.865-15.677,14.371C899.516,422.141,919.902,432.104,933.056,410.989z"/>
		<path fill="none" stroke="#000000" stroke-width="9" stroke-linecap="round" stroke-linejoin="round" stroke-miterlimit="10" d="
			M879.093,447.792c0-4.595-3.723-8.316-8.316-8.316c-4.592,0-8.313,3.722-8.313,8.316"/>
		<path fill="#0076B6" d="M837.919,467.21c0,0,1.15-23.33,11.521-23.04c0,0,6.623-0.577,4.608,17.566
			c0,0-0.291,22.464-19.299,16.707c0,0-12.707-0.968-5.507-20.841l2.532,1.286l5.821,2.143
			C837.596,461.031,836.333,465.984,837.919,467.21z"/>
		<path fill="#0076B6" d="M901.324,467.21c0,0-1.152-23.33-11.521-23.04c0,0-6.625-0.577-4.608,17.566
			c0,0,0.287,22.464,19.297,16.707c0,0,12.412,0.56,5.211-19.313l-4.598,1.828l-4.371,0.818
			C900.734,461.776,902.908,465.984,901.324,467.21z"/>
	</g>
	<g>
		<g>
			<path fill="#005198" d="M868.752,516.508c0,0-3.411-13.22-14.757-13.093c0,0-7.675-0.513-20.299,13.305
				c0,0-6.779,6.954,8.062,7.761c0,0,18.677,0.471,23.454-2.173C865.212,522.308,869.861,520.985,868.752,516.508z"/>
		</g>
		<defs>
			<filter id="Adobe_OpacityMaskFilter_3_" filterUnits="userSpaceOnUse" x="832.152" y="503.413" width="36.771" height="21.1">
				
					<feColorMatrix  type="matrix" values="-1 0 0 0 1  0 -1 0 0 1  0 0 -1 0 1  0 0 0 1 0" color-interpolation-filters="sRGB" result="source"/>
			</filter>
		</defs>
		<mask maskUnits="userSpaceOnUse" x="832.152" y="503.413" width="36.771" height="21.1" id="SVGID_5_">
			<g filter="url(#Adobe_OpacityMaskFilter_3_)">
				
					<image overflow="visible" width="170" height="105" xlink:href="2748AE1B.jpg"  transform="matrix(0.24 0 0 0.24 830.1519 501.4131)">
				</image>
			</g>
		</mask>
		<g opacity="0.44" mask="url(#SVGID_5_)">
			<path fill="#939598" d="M868.752,516.508c0,0-3.411-13.22-14.757-13.093c0,0-7.675-0.513-20.299,13.305
				c0,0-6.779,6.954,8.062,7.761c0,0,18.677,0.471,23.454-2.173C865.212,522.308,869.861,520.985,868.752,516.508z"/>
		</g>
	</g>
	<g>
		<g>
			<path fill="#005198" d="M875.162,516.508c0,0,3.411-13.22,14.756-13.093c0,0,7.676-0.513,20.297,13.305
				c0,0,6.783,6.954-8.059,7.761c0,0-18.678,0.471-23.455-2.173C878.701,522.308,874.052,520.985,875.162,516.508z"/>
		</g>
		<defs>
			<filter id="Adobe_OpacityMaskFilter_4_" filterUnits="userSpaceOnUse" x="874.991" y="503.413" width="36.771" height="21.1">
				
					<feColorMatrix  type="matrix" values="-1 0 0 0 1  0 -1 0 0 1  0 0 -1 0 1  0 0 0 1 0" color-interpolation-filters="sRGB" result="source"/>
			</filter>
		</defs>
		<mask maskUnits="userSpaceOnUse" x="874.991" y="503.413" width="36.771" height="21.1" id="SVGID_6_">
			<g filter="url(#Adobe_OpacityMaskFilter_4_)">
				
					<image overflow="visible" width="170" height="105" xlink:href="2748AE25.jpg"  transform="matrix(0.24 0 0 0.24 872.9907 501.4131)">
				</image>
			</g>
		</mask>
		<g opacity="0.44" mask="url(#SVGID_6_)">
			<path fill="#939598" d="M875.162,516.508c0,0,3.411-13.22,14.756-13.093c0,0,7.676-0.513,20.297,13.305
				c0,0,6.783,6.954-8.059,7.761c0,0-18.678,0.471-23.455-2.173C878.701,522.308,874.052,520.985,875.162,516.508z"/>
		</g>
	</g>
	<path fill="#9B9DA0" d="M563.219,567.375c0,0-25.992-87.527-106.628-110.188c0,0,25.696,95.73-16.122,104.41
		c-3.75,0.778-6,2.028-6,2.028l62.248,5.999l45.669,12.912L563.219,567.375z"/>
	<path fill="#7D7E81" d="M456.591,457.187c80.636,22.661,106.628,110.188,106.628,110.188l-20.833,15.161
		c0,0,3.333-79.661-82.667-122.161L456.591,457.187z"/>
	<path fill="#9B9DA0" d="M539.719,704.247c0,0-25.762-82.718-90.716-100.972c0,0,24.401,85.846-9.284,92.837
		c-3.021,0.627-13.416,1.791-13.416,1.791l55.023-4.058l35.393,7.029L539.719,704.247z"/>
	<path fill="#7D7E81" d="M449.003,603.275c64.954,18.254,90.716,98.728,90.716,98.728l-21,0.372c0,0,2.079-62.297-67.195-96.531
		L449.003,603.275z"/>
	<path fill="#9B9DA0" d="M305.895,604.964c0,0-20.938-70.505-85.892-88.759c0,0,20.699,77.113-12.986,84.104
		c-3.021,0.627-4.833,1.634-4.833,1.634l50.143,4.832l36.787,10.401L305.895,604.964z"/>
	<path fill="#7D7E81" d="M220.003,516.205c64.954,18.254,85.892,88.759,85.892,88.759l-16.781,12.213c0,0,2.685-64.169-66.59-98.403
		L220.003,516.205z"/>
	<path fill="#48A4CD" d="M641.653,568.298c-13.644-4.495-28.913-5.549-43.158-5.485c-14.595,0.062-29.964,1.469-44.087,5.273
		c-6.535,1.76-12.574,3.692-19.491,4.041c-11.999,0.609-23.19-3.695-34.697-6.287c-8.451-1.904-17.08-2.733-25.706-3.397
		c-23.561-1.807-47.951-0.991-70.873,5.118c0,0-29.895,3.516-37.901-5.881c0,0,14.417,21.195,51.247,10.597
		c13.708-3.945,27.466-6.376,41.824-5.514c21.812,1.314,41.253,12.636,62.836,15.194c12.828,1.521,26.466,1.673,38.885-2.328
		c11.996-3.862,22.658-11.105,34.99-14.05c15.483-3.695,31.148-1.875,46.199,2.739C641.699,568.313,641.675,568.305,641.653,568.298
		z"/>
	<path fill="#48A4CD" d="M588.804,700.086c-13.645,4.496-28.913,5.549-43.157,5.486c-14.596-0.063-29.964-1.471-44.088-5.273
		c-6.535-1.76-12.573-3.692-19.491-4.041c-11.998-0.609-23.189,3.694-34.696,6.287c-8.452,1.903-17.081,2.733-25.707,3.396
		c-23.56,1.808-47.951,0.99-70.873-5.117c0,0-29.895-3.516-37.901,5.88c0,0,14.417-21.194,51.247-10.598
		c13.709,3.945,27.466,6.378,41.824,5.514c21.813-1.313,41.254-12.635,62.836-15.192c12.829-1.523,26.467-1.673,38.884,2.326
		c11.997,3.864,22.659,11.106,34.992,14.052c15.482,3.695,31.147,1.873,46.198-2.741
		C588.849,700.071,588.827,700.079,588.804,700.086z"/>
	<path fill="#62BCD8" d="M431.184,603.72c0,0-26.261-31.717-129.251-4.094c-27.384,7.346-55.83,7.329-83.036-0.447
		c-18.382-5.257-35.894-9.663-54.976-11.02c-18.619-1.326-37.485-0.576-56.001,1.72c-12.963,1.608-25.864,3.803-38.568,6.874
		c0,0-33.078,7.987-53.2-5.652c0,0,13.981,31.717,111.858,7.844c19.546-4.768,39.9-5.195,59.014,1.942
		c17.846,6.669,33.909,13.847,52.945,16.442c19.763,2.698,39.934,2.2,59.56-1.382c13.874-2.528,27.663-6.962,40.601-12.571
		C340.129,603.376,383.441,589.735,431.184,603.72z"/>
</g>
</svg>
